<svg width="248" height="291" xmlns="http://www.w3.org/2000/svg" data-name="Layer 1">
 <title>Chubbs_11 by growwwkit</title>

 <g>
  <title>Layer 1</title>
  <g stroke="null" id="svg_62">
   <path stroke="#000" class="cls-5" d="m118.32642,27.30547c0,15.90576 0,15.64531 0,31.62548c-0.28491,39.27141 23.49538,40.05274 20.74127,94.18812c-0.39887,7.90637 -6.98973,6.9204 -8.22433,17.54284c-9.11704,2.17658 -33.52412,-6.54833 -42.64117,-4.39036c-9.09805,-2.15797 -31.64373,15.68252 -40.74178,13.50594c-2.45021,-10.49222 -5.43224,-16.7429 -5.35626,-25.00273c0.36088,-50.2287 21.63398,-62.73007 21.59599,-93.01612l0,-34.34155c-0.05698,-35.34613 54.5693,-34.13692 54.62628,-0.11162z" fill="none" stroke-linecap="round" stroke-width="0.57px" stroke-linejoin="round" id="svg_29"/>
   <path stroke="null" class="cls-1" d="m126.3988,96.32343l12.40298,8.40866s12.59291,-14.10124 12.72587,-16.42665c0.34189,-6.02744 -0.9307,-13.02226 1.08265,-19.0683c3.32392,-9.95272 13.29569,-7.59012 15.76489,-2.26959c0,0 -16.25873,-0.13022 3.79877,0a4.6345,4.53919 0 0 1 3.79877,7.44129c-0.20893,0.27905 5.69815,2.17658 1.89938,7.98078c4.78645,5.1903 -1.21561,8.33424 -1.63347,8.74352c-7.23665,6.71576 -15.57495,21.3751 -19.75359,27.90484c-9.07905,14.34309 -34.37885,0.65111 -36.08829,-0.85575c-0.58881,-0.42787 6.00205,-21.85879 6.00205,-21.85879z" fill="#ffbffb" fill-rule="evenodd" id="svg_1"/>
   <path stroke="#000" class="cls-2" d="m126.3988,96.32343l12.40298,8.40866s12.59291,-14.10124 12.72587,-16.42665c0.34189,-6.02744 -0.9307,-13.02226 1.08265,-19.0683c3.32392,-9.95272 13.29569,-7.59012 15.76489,-2.26959c0,0 -16.25873,-0.13022 3.79877,0a4.6345,4.53919 0 0 1 3.79877,7.44129c-0.20893,0.27905 5.69815,2.17658 1.89938,7.98078c4.78645,5.1903 -1.21561,8.33424 -1.63347,8.74352c-7.23665,6.71576 -15.57495,21.3751 -19.75359,27.90484c-9.07905,14.34309 -34.37885,0.65111 -36.08829,-0.85575c-0.58881,-0.42787 6.00205,-21.85879 6.00205,-21.85879z" fill="#ffffff" stroke-linecap="round" stroke-width="0.57px" stroke-miterlimit="22.93" id="svg_2"/>
   <path stroke="#000" class="cls-2" d="m163.0949,67.19079c-5.69815,0.66972 -7.19866,8.46447 0.22793,8.12961c2.90606,-0.13022 6.66684,-0.42787 6.41992,-0.37206c-0.9117,0.18603 -12.44096,0.78134 -9.00308,5.7856c2.1653,3.12534 11.18737,1.86032 10.88347,1.86032a16.86653,16.51966 0 0 0 -5.58419,1.50686c-5.33727,2.08356 -3.96971,6.49253 1.25359,6.939c1.32957,0.11162 3.24795,0.16743 4.6345,0.16743" fill="none" stroke-linecap="round" stroke-width="0.57px" stroke-miterlimit="22.93" id="svg_3"/>
   <path stroke="null" class="cls-1" d="m138.63083,64.13986l24.44507,0l0,24.72368a5.39425,5.28332 0 0 1 -5.37526,5.28332l-13.69456,0a5.39425,5.28332 0 0 1 -5.37526,-5.28332l0,-24.72368z" fill="#ffbffb" fill-rule="evenodd" id="svg_4"/>
   <path stroke="#373435" class="cls-3" d="m138.63083,64.13986l24.44507,0l0,24.72368a5.39425,5.28332 0 0 1 -5.37526,5.28332l-13.69456,0a5.39425,5.28332 0 0 1 -5.37526,-5.28332l0,-24.72368z" fill="#ffffff" stroke-linecap="round" stroke-width="0.57px" stroke-miterlimit="22.93" id="svg_5"/>
   <path stroke="#373435" class="cls-3" d="m145.33566,58.67051c-4.59651,-11.72003 4.04569,-11.16193 4.0077,-18.21256c0,-3.72064 -3.30493,-5.04147 -3.53285,-8.40866" fill="none" stroke-linecap="round" stroke-width="0.57px" stroke-miterlimit="22.93" id="svg_6"/>
   <path stroke="#373435" class="cls-3" d="m150.69192,61.16334c-4.76745,-10.67825 -0.41786,-9.7853 1.46253,-16.1662" fill="none" stroke-linecap="round" stroke-width="0.57px" stroke-miterlimit="22.93" id="svg_7"/>
   <path stroke="null" class="cls-4" d="m87.06256,198.19469l0,0a4.90041,4.79963 0 0 0 -4.86242,4.78103l0,82.56111a4.88142,4.78103 0 0 0 9.74384,0l0,-82.56111a4.90041,4.79963 0 0 0 -4.88142,-4.78103z" fill-rule="evenodd" id="svg_8"/>
   <path stroke="#000" class="cls-2" d="m87.06256,198.19469l0,0a4.90041,4.79963 0 0 0 -4.86242,4.78103l0,82.56111a4.88142,4.78103 0 0 0 9.74384,0l0,-82.56111a4.90041,4.79963 0 0 0 -4.88142,-4.78103z" fill="none" stroke-linecap="round" stroke-width="0.57px" stroke-miterlimit="22.93" id="svg_9"/>
   <rect stroke="null" x="46.77663" y="196.81805" width="81.04671" height="19.645" rx="5.28" ry="5.28" id="svg_10"/>
   <rect stroke="#000" class="cls-2" x="46.77663" y="196.81805" width="81.04671" height="19.645" rx="5.28" ry="5.28" fill="none" stroke-linecap="round" stroke-width="0.57px" stroke-miterlimit="22.93" id="svg_11"/>
   <path stroke="null" class="cls-4" d="m89.96862,203.32918l0,0a4.88142,4.78103 0 0 0 -2.75411,6.17627l30.69404,76.90573a4.86242,4.76243 0 1 0 9.06006,-3.4788l-30.63706,-76.88712a4.88142,4.78103 0 0 0 -6.36294,-2.71607z" fill-rule="evenodd" id="svg_12"/>
   <path stroke="#000" class="cls-2" d="m89.96862,203.32918l0,0a4.88142,4.78103 0 0 0 -2.75411,6.17627l30.69404,76.90573a4.86242,4.76243 0 1 0 9.06006,-3.4788l-30.63706,-76.88712a4.88142,4.78103 0 0 0 -6.36294,-2.71607z" fill="none" stroke-linecap="round" stroke-width="0.57px" stroke-miterlimit="22.93" id="svg_13"/>
   <path stroke="null" class="cls-4" d="m83.07386,203.32918l0,0a4.88142,4.78103 0 0 1 2.7731,6.17627l-30.61807,76.90573a4.86242,4.76243 0 0 1 -9.06006,-3.4788l30.65605,-76.88712a4.86242,4.76243 0 0 1 6.24897,-2.71607z" fill-rule="evenodd" id="svg_14"/>
   <path stroke="#000" class="cls-2" d="m83.07386,203.32918l0,0a4.88142,4.78103 0 0 1 2.7731,6.17627l-30.61807,76.90573a4.86242,4.76243 0 0 1 -9.06006,-3.4788l30.65605,-76.88712a4.86242,4.76243 0 0 1 6.24897,-2.71607z" fill="none" stroke-linecap="round" stroke-width="0.57px" stroke-miterlimit="22.93" id="svg_15"/>
   <path stroke="null" class="cls-1" d="m190.08514,258.58075l-39.88706,0a1.25359,1.22781 0 0 0 -1.21561,1.19061l-1.89938,26.34216l63.76232,0c1.19661,-11.03171 -7.04671,-14.38029 -16.77156,-19.10551c-3.77977,-2.73467 -3.98871,-8.42726 -3.98871,-8.42726z" fill="#ffbffb" fill-rule="evenodd" id="svg_16"/>
   <path stroke="#000" class="cls-5" d="m190.08514,258.58075l-39.88706,0a1.25359,1.22781 0 0 0 -1.21561,1.19061l-1.89938,26.34216l63.76232,0c1.19661,-11.03171 -7.04671,-14.38029 -16.77156,-19.10551c-3.77977,-2.73467 -3.98871,-8.42726 -3.98871,-8.42726z" fill="#ffffff" stroke-linecap="round" stroke-width="0.57px" stroke-linejoin="round" id="svg_17"/>
   <rect stroke="null" class="cls-6" x="145.08874" y="281.89059" width="66.99127" height="8.01799" rx="0.64" ry="0.64" fill="#ffbffb" id="svg_18"/>
   <rect stroke="#000" class="cls-5" x="145.08874" y="281.89059" width="66.99127" height="8.01799" rx="0.64" ry="0.64" fill="#ffffff" stroke-linecap="round" stroke-width="0.57px" stroke-linejoin="round" id="svg_19"/>
   <path stroke="null" class="cls-4" d="m189.43935,259.13885l0.83573,3.27417a281.56466,275.77419 0 0 0 -31.89065,-3.16255l31.05493,-0.11162z" fill-rule="evenodd" id="svg_20"/>
   <path stroke="#000" class="cls-2" d="m189.43935,259.13885l0.83573,3.27417a281.56466,275.77419 0 0 0 -31.89065,-3.16255l31.05493,-0.11162z" fill="none" stroke-linecap="round" stroke-width="0.57px" stroke-miterlimit="22.93" id="svg_21"/>
   <path stroke="null" class="cls-1" d="m157.89059,258.50634l-39.88706,0a1.27259,1.24642 0 0 0 -1.21561,1.19061l-1.89938,26.34216l63.8003,0c1.19661,-11.03171 -7.04671,-14.38029 -16.79055,-19.10551c-3.7038,-2.73467 -4.0077,-8.42726 -4.0077,-8.42726z" fill="#ffbffb" fill-rule="evenodd" id="svg_22"/>
   <path stroke="#000" class="cls-5" d="m157.89059,258.50634l-39.88706,0a1.27259,1.24642 0 0 0 -1.21561,1.19061l-1.89938,26.34216l63.8003,0c1.19661,-11.03171 -7.04671,-14.38029 -16.79055,-19.10551c-3.7038,-2.73467 -4.0077,-8.42726 -4.0077,-8.42726z" fill="#ffffff" stroke-linecap="round" stroke-width="0.57px" stroke-linejoin="round" id="svg_23"/>
   <rect stroke="null" class="cls-6" x="112.98915" y="281.83478" width="66.99127" height="8.01799" rx="0.64" ry="0.64" fill="#ffbffb" id="svg_24"/>
   <rect stroke="#000" class="cls-5" x="112.98915" y="281.83478" width="66.99127" height="8.01799" rx="0.64" ry="0.64" fill="#ffffff" stroke-linecap="round" stroke-width="0.57px" stroke-linejoin="round" id="svg_25"/>
   <path stroke="null" class="cls-4" d="m157.90958,259.06444l0.81674,3.29277a243.12113,238.12126 0 0 0 -31.09291,-3.18115l30.27618,-0.11162z" fill-rule="evenodd" id="svg_26"/>
   <path stroke="#000" class="cls-2" d="m157.90958,259.06444l0.81674,3.29277a243.12113,238.12126 0 0 0 -31.09291,-3.18115l30.27618,-0.11162z" fill="none" stroke-linecap="round" stroke-width="0.57px" stroke-miterlimit="22.93" id="svg_27"/>
   <path stroke="null" class="cls-1" d="m118.32642,27.30547c0,15.90576 0,15.64531 0,31.62548c-0.28491,39.27141 23.49538,40.05274 20.74127,94.18812c-0.39887,7.90637 -6.98973,6.9204 -8.22433,17.54284c-9.11704,2.17658 -33.52412,-6.54833 -42.64117,-4.39036c-9.09805,-2.15797 -31.64373,15.68252 -40.74178,13.50594c-2.45021,-10.49222 -5.43224,-16.7429 -5.35626,-25.00273c0.36088,-50.2287 21.63398,-62.73007 21.59599,-93.01612l0,-34.34155c-0.05698,-35.34613 54.5693,-34.13692 54.62628,-0.11162z" fill="#ffffff" fill-rule="evenodd" id="svg_28"/>
   <path stroke="null" class="cls-1" d="m150.55896,151.89126c15.84086,0.91156 42.81211,7.59012 41.63449,44.08964c0,35.62517 0.15195,61.29762 0,63.13934c1.50051,0.46508 -75.50051,0.37206 -75.50051,0.37206s0.55082,-42.1177 0.3039,-50.32172c-0.20893,-6.9018 -0.55082,-12.50137 -10.54158,-12.46416c-1.76643,0 -24.00821,0 -25.86961,0.11162c-15.34702,0.5581 -42.16632,1.86032 -41.67248,-27.90484c0,-4.46477 1.42454,-8.91094 3.32392,-15.70112a6.83778,6.69716 0 0 0 0,-1.35804l88.28336,0c6.26797,0.03721 13.97946,-0.29765 20.0385,0.03721z" fill="#ffbffb" fill-rule="evenodd" id="svg_30"/>
   <path stroke="#000" class="cls-5" d="m150.55896,151.89126c15.84086,0.91156 42.81211,7.59012 41.63449,44.08964c0,35.62517 0.15195,61.29762 0,63.13934c1.50051,0.46508 -75.50051,0.37206 -75.50051,0.37206s0.55082,-42.1177 0.3039,-50.32172c-0.20893,-6.9018 -0.55082,-12.50137 -10.54158,-12.46416c-1.76643,0 -24.00821,0 -25.86961,0.11162c-15.34702,0.5581 -42.16632,1.86032 -41.67248,-27.90484c0,-4.46477 1.42454,-8.91094 3.32392,-15.70112a6.83778,6.69716 0 0 0 0,-1.35804l88.28336,0c6.26797,0.03721 13.97946,-0.29765 20.0385,0.03721z" fill="#ffffff" stroke-linecap="round" stroke-width="0.57px" stroke-linejoin="round" id="svg_31"/>
   <path stroke="null" class="cls-1" d="m64.21298,68.02793l54.13244,0a3.79877,3.72064 0 0 1 0,7.44129l-54.13244,0a3.79877,3.72064 0 1 1 0,-7.44129z" fill="#ffbffb" fill-rule="evenodd" id="svg_32"/>
   <path stroke="#000" class="cls-2" d="m64.21298,68.02793l54.13244,0a3.79877,3.72064 0 0 1 0,7.44129l-54.13244,0a3.79877,3.72064 0 1 1 0,-7.44129z" fill="#ffffff" stroke-linecap="round" stroke-width="0.57px" stroke-miterlimit="22.93" id="svg_33"/>
   <line stroke="#000" class="cls-2" x1="63.70014" y1="24.21734" x2="146.96913" y2="24.21734" fill="none" stroke-linecap="round" stroke-width="0.57px" stroke-miterlimit="22.93" id="svg_34"/>
   <path stroke="null" class="cls-4" d="m119.54203,75.50643l0.83573,3.29277a270.9471,265.37499 0 0 0 -31.89065,-3.16255l31.05493,-0.13022z" fill-rule="evenodd" id="svg_35"/>
   <path stroke="#000" class="cls-2" d="m119.54203,75.50643l0.83573,3.29277a270.9471,265.37499 0 0 0 -31.89065,-3.16255l31.05493,-0.13022z" fill="none" stroke-linecap="round" stroke-width="0.57px" stroke-miterlimit="22.93" id="svg_36"/>
   <path stroke="null" class="cls-4" d="m117.4717,24.08712l0.83573,3.29277a270.28232,264.72387 0 0 0 -31.89065,-3.16255l31.05493,-0.13022z" fill-rule="evenodd" id="svg_37"/>
   <path stroke="#000" class="cls-2" d="m117.4717,24.08712l0.83573,3.29277a270.28232,264.72387 0 0 0 -31.89065,-3.16255l31.05493,-0.13022z" fill="none" stroke-linecap="round" stroke-width="0.57px" stroke-miterlimit="22.93" id="svg_38"/>
   <path stroke="#000" class="cls-2" d="m160.6067,259.73415l0,-67.67853c0,-3.19975 1.48152,-37.85756 -30.08624,-40.23877" fill="none" stroke-linecap="round" stroke-width="0.57px" stroke-miterlimit="22.93" id="svg_39"/>
   <path stroke="null" class="cls-7" d="m116.50301,47.56439a3.17197,3.10674 0 1 1 3.17197,-3.14394a3.19096,3.12534 0 0 1 -3.17197,3.14394z" fill-rule="evenodd" fill="#fefefe" id="svg_40"/>
   <path stroke="#000" class="cls-5" d="m116.50301,47.56439a3.17197,3.10674 0 1 1 3.17197,-3.14394a3.19096,3.12534 0 0 1 -3.17197,3.14394z" fill="none" stroke-linecap="round" stroke-width="0.57px" stroke-linejoin="round" id="svg_41"/>
   <path stroke="null" class="cls-7" d="m89.85466,41.35091a3.17197,3.10674 0 1 1 -3.17197,3.06953a3.17197,3.10674 0 0 1 3.17197,-3.06953z" fill-rule="evenodd" fill="#fefefe" id="svg_42"/>
   <path stroke="#000" class="cls-5" d="m89.85466,41.35091a3.17197,3.10674 0 1 1 -3.17197,3.06953a3.17197,3.10674 0 0 1 3.17197,-3.06953z" fill="none" stroke-linecap="round" stroke-width="0.57px" stroke-linejoin="round" id="svg_43"/>
   <path stroke="#000" class="cls-2" d="m115.3064,32.40276a6.28696,6.15767 0 0 1 3.66581,0.5581" fill="none" stroke-linecap="round" stroke-width="0.57px" stroke-miterlimit="22.93" id="svg_44"/>
   <path stroke="#000" class="cls-2" d="m91.20322,32.40276a6.22998,6.10186 0 0 0 -3.66581,0.5581" fill="none" stroke-linecap="round" stroke-width="0.57px" stroke-miterlimit="22.93" id="svg_45"/>
   <path stroke="null" class="cls-4" d="m117.4527,45.74127a0.36088,0.35346 0 0 1 0.36088,0.35346a0.37988,0.37206 0 0 1 -0.36088,0.35346a0.36088,0.35346 0 0 1 -0.36088,-0.35346a0.34189,0.33486 0 0 1 0.36088,-0.35346z" fill-rule="evenodd" id="svg_46"/>
   <path stroke="#000" class="cls-5" d="m117.4527,45.74127a0.36088,0.35346 0 0 1 0.36088,0.35346a0.37988,0.37206 0 0 1 -0.36088,0.35346a0.36088,0.35346 0 0 1 -0.36088,-0.35346a0.34189,0.33486 0 0 1 0.36088,-0.35346z" fill="none" stroke-linecap="round" stroke-width="0.57px" stroke-linejoin="round" id="svg_47"/>
   <path stroke="null" class="cls-4" d="m91.01328,46.09473a0.37988,0.37206 0 0 1 -0.36088,-0.35346a0.37988,0.37206 0 0 1 0.36088,-0.37206a0.36088,0.35346 0 0 1 0.36088,0.37206a0.36088,0.35346 0 0 1 -0.36088,0.35346z" fill-rule="evenodd" id="svg_48"/>
   <path stroke="#000" class="cls-5" d="m91.01328,46.09473a0.37988,0.37206 0 0 1 -0.36088,-0.35346a0.37988,0.37206 0 0 1 0.36088,-0.37206a0.36088,0.35346 0 0 1 0.36088,0.37206a0.36088,0.35346 0 0 1 -0.36088,0.35346z" fill="none" stroke-linecap="round" stroke-width="0.57px" stroke-linejoin="round" id="svg_49"/>
   <path stroke="#373435" class="cls-3" d="m94.86903,53.49881c0.74076,1.7487 2.81109,1.97194 4.52053,1.97194" fill="none" stroke-linecap="round" stroke-width="0.57px" stroke-miterlimit="22.93" id="svg_50"/>
   <path stroke="null" class="cls-4" d="m109.51328,80.15723l29.47844,10.23177l-14.39733,50.2287l-32.28953,-11.16193l13.61858,-47.49403a2.69713,2.64166 0 0 1 3.58984,-1.80451z" fill-rule="evenodd" id="svg_51"/>
   <path stroke="#000" class="cls-2" d="m109.51328,80.15723l29.47844,10.23177l-14.39733,50.2287l-32.28953,-11.16193l13.61858,-47.49403a2.69713,2.64166 0 0 1 3.58984,-1.80451z" fill="none" stroke-linecap="round" stroke-width="0.57px" stroke-miterlimit="22.93" id="svg_52"/>
   <path stroke="null" class="cls-4" d="m150.19808,80.95717l-10.86448,9.30161l-14.39733,50.2287l13.02977,-11.16193l12.97279,-45.22444c0.85472,-2.77188 0.51283,-4.16712 -0.74076,-3.14394z" fill-rule="evenodd" id="svg_53"/>
   <path stroke="#000" class="cls-2" d="m150.19808,80.95717l-10.86448,9.30161l-14.39733,50.2287l13.02977,-11.16193l12.97279,-45.22444c0.85472,-2.77188 0.51283,-4.16712 -0.74076,-3.14394z" fill="none" stroke-linecap="round" stroke-width="0.57px" stroke-miterlimit="22.93" id="svg_54"/>
   <path stroke="null" class="cls-1" d="m73.74788,87.57992c6.66684,9.18999 7.90144,18.43579 16.61961,26.39797c1.63347,1.48826 13.10575,4.78103 21.78593,7.21805c3.6848,1.02318 10.54158,-1.1348 12.25103,-0.61391s4.71047,2.04635 2.26027,6.38091c-0.47485,0.85575 5.94507,0.24184 7.16068,1.50686c3.3999,3.59042 -1.89938,6.26929 -1.89938,6.26929c0.28491,2.82769 -1.69045,3.90668 -4.6345,5.02287a3.79877,3.72064 0 0 1 -3.20996,2.54864a63.09753,61.79991 0 0 1 -22.79261,-1.86032c-2.67813,-0.72553 -5.50821,-1.59988 -8.20534,-2.51144c-13.80852,-4.66941 -24.69199,-7.44129 -31.37782,-21.04025c-0.58881,-1.19061 -3.51386,-6.95761 -5.69815,-10.99451c-5.69815,-10.78987 12.76386,-26.21194 17.68326,-18.41719" fill="#ffffff" fill-rule="evenodd" id="svg_55"/>
   <path stroke="#000" class="cls-2" d="m73.74788,87.57992c6.66684,9.18999 7.90144,18.43579 16.61961,26.39797c1.63347,1.48826 13.10575,4.78103 21.78593,7.21805c3.6848,1.02318 10.54158,-1.1348 12.25103,-0.61391s4.71047,2.04635 2.26027,6.38091c-0.47485,0.85575 5.94507,0.24184 7.16068,1.50686c3.3999,3.59042 -1.89938,6.26929 -1.89938,6.26929c0.28491,2.82769 -1.69045,3.90668 -4.6345,5.02287a3.79877,3.72064 0 0 1 -3.20996,2.54864a63.09753,61.79991 0 0 1 -22.79261,-1.86032c-2.67813,-0.72553 -5.50821,-1.59988 -8.20534,-2.51144c-13.80852,-4.66941 -24.69199,-7.44129 -31.37782,-21.04025c-0.58881,-1.19061 -3.51386,-6.95761 -5.69815,-10.99451" fill="#ffffff" stroke-linecap="round" stroke-width="0.57px" stroke-miterlimit="22.93" id="svg_56"/>
   <path stroke="#000" class="cls-2" d="m123.60671,133.71591a25.67967,25.15156 0 0 0 8.81314,0.87435" fill="none" stroke-linecap="round" stroke-width="0.57px" stroke-miterlimit="22.93" id="svg_57"/>
   <path stroke="#000" class="cls-2" d="m118.85825,138.72018a25.56571,25.03994 0 0 0 8.79415,0.87435" fill="none" stroke-linecap="round" stroke-width="0.57px" stroke-miterlimit="22.93" id="svg_58"/>
   <path stroke="null" class="cls-4" d="m112.2104,144.5802c-14.98614,-1.52546 -32.53644,-9.8225 -39.88706,-14.88258c-1.06365,-0.74413 -4.15965,-3.49741 -0.13296,-0.48368s11.3963,5.58097 17.09445,7.59012a94.26642,92.3278 0 0 0 31.7387,5.767s-2.33624,2.66026 -8.81314,2.00915z" fill-rule="evenodd" id="svg_59"/>
   <path stroke="#000" class="cls-2" d="m112.2104,144.5802c-14.98614,-1.52546 -32.53644,-9.8225 -39.88706,-14.88258c-1.06365,-0.74413 -4.15965,-3.49741 -0.13296,-0.48368s11.3963,5.58097 17.09445,7.59012a94.26642,92.3278 0 0 0 31.7387,5.767s-2.33624,2.66026 -8.81314,2.00915z" fill="none" stroke-linecap="round" stroke-width="0.57px" stroke-miterlimit="22.93" id="svg_60"/>
   <line stroke="#000" class="cls-2" x1="127.3295" y1="127.42803" x2="119.82693" y2="126.51647" fill="none" stroke-linecap="round" stroke-width="0.57px" stroke-miterlimit="22.93" id="svg_61"/>
  </g>
 </g>
</svg>