<svg width="248" height="291" xmlns="http://www.w3.org/2000/svg" data-name="Layer 1">
 <title>Chubbs_11 by growwwkit</title>

 <g>
  <title>Layer 1</title>
  <path class="cls-5" d="m120.22,81.8c0,8.55 0,8.41 0,17c-0.15,21.11 12.37,21.53 10.92,50.63c-0.21,4.25 -3.68,3.72 -4.33,9.43c-4.8,1.17 -17.65,-3.52 -22.45,-2.36c-4.79,-1.16 -16.66,8.43 -21.45,7.26c-1.29,-5.64 -2.86,-9 -2.82,-13.44c0.19,-27 11.39,-33.72 11.37,-50l0,-18.46c-0.03,-19 28.73,-18.35 28.76,-0.06z" fill="none" stroke-linecap="round" stroke-width="0.57px" stroke="#000" stroke-linejoin="round" id="svg_29"/>
  <path class="cls-1" d="m124.47,118.9l6.53,4.52s6.63,-7.58 6.7,-8.83c0.18,-3.24 -0.49,-7 0.57,-10.25c1.75,-5.35 7,-4.08 8.3,-1.22c0,0 -8.56,-0.07 2,0a2.44,2.44 0 0 1 2,4c-0.11,0.15 3,1.17 1,4.29c2.52,2.79 -0.64,4.48 -0.86,4.7c-3.81,3.61 -8.2,11.49 -10.4,15c-4.78,7.71 -18.1,0.35 -19,-0.46c-0.31,-0.23 3.16,-11.75 3.16,-11.75z" fill="#ffbffb" fill-rule="evenodd" id="svg_1"/>
  <path class="cls-2" d="m124.47,118.9l6.53,4.52s6.63,-7.58 6.7,-8.83c0.18,-3.24 -0.49,-7 0.57,-10.25c1.75,-5.35 7,-4.08 8.3,-1.22c0,0 -8.56,-0.07 2,0a2.44,2.44 0 0 1 2,4c-0.11,0.15 3,1.17 1,4.29c2.52,2.79 -0.64,4.48 -0.86,4.7c-3.81,3.61 -8.2,11.49 -10.4,15c-4.78,7.71 -18.1,0.35 -19,-0.46c-0.31,-0.23 3.16,-11.75 3.16,-11.75z" fill="#ffffff" stroke-linecap="round" stroke-width="0.57px" stroke="#000" stroke-miterlimit="22.93" id="svg_2"/>
  <path class="cls-2" d="m143.79,103.24c-3,0.36 -3.79,4.55 0.12,4.37c1.53,-0.07 3.51,-0.23 3.38,-0.2c-0.48,0.1 -6.55,0.42 -4.74,3.11c1.14,1.68 5.89,1 5.73,1a8.88,8.88 0 0 0 -2.94,0.81c-2.81,1.12 -2.09,3.49 0.66,3.73c0.7,0.06 1.71,0.09 2.44,0.09" fill="none" stroke-linecap="round" stroke-width="0.57px" stroke="#000" stroke-miterlimit="22.93" id="svg_3"/>
  <path class="cls-1" d="m130.91,101.6l12.87,0l0,13.29a2.84,2.84 0 0 1 -2.83,2.84l-7.21,0a2.84,2.84 0 0 1 -2.83,-2.84l0,-13.29z" fill="#ffbffb" fill-rule="evenodd" id="svg_4"/>
  <path class="cls-3" d="m130.91,101.6l12.87,0l0,13.29a2.84,2.84 0 0 1 -2.83,2.84l-7.21,0a2.84,2.84 0 0 1 -2.83,-2.84l0,-13.29z" fill="#ffffff" stroke-linecap="round" stroke-width="0.57px" stroke-miterlimit="22.93" stroke="#373435" id="svg_5"/>
  <path class="cls-3" d="m134.44,98.66c-2.42,-6.3 2.13,-6 2.11,-9.79c0,-2 -1.74,-2.71 -1.86,-4.52" fill="none" stroke-linecap="round" stroke-width="0.57px" stroke-miterlimit="22.93" stroke="#373435" id="svg_6"/>
  <path class="cls-3" d="m137.26,100c-2.51,-5.74 -0.22,-5.26 0.77,-8.69" fill="none" stroke-linecap="round" stroke-width="0.57px" stroke-miterlimit="22.93" stroke="#373435" id="svg_7"/>
  <path class="cls-4" d="m103.76,173.66l0,0a2.58,2.58 0 0 0 -2.56,2.57l0,44.38a2.57,2.57 0 0 0 5.13,0l0,-44.38a2.58,2.58 0 0 0 -2.57,-2.57z" fill-rule="evenodd" id="svg_8"/>
  <path class="cls-2" d="m103.76,173.66l0,0a2.58,2.58 0 0 0 -2.56,2.57l0,44.38a2.57,2.57 0 0 0 5.13,0l0,-44.38a2.58,2.58 0 0 0 -2.57,-2.57z" fill="none" stroke-linecap="round" stroke-width="0.57px" stroke="#000" stroke-miterlimit="22.93" id="svg_9"/>
  <rect x="82.55" y="172.92" width="42.67" height="10.56" rx="5.28" ry="5.28" id="svg_10"/>
  <rect class="cls-2" x="82.55" y="172.92" width="42.67" height="10.56" rx="5.28" ry="5.28" fill="none" stroke-linecap="round" stroke-width="0.57px" stroke="#000" stroke-miterlimit="22.93" id="svg_11"/>
  <path class="cls-4" d="m105.29,176.42l0,0a2.57,2.57 0 0 0 -1.45,3.32l16.16,41.34a2.56,2.56 0 1 0 4.77,-1.87l-16.13,-41.33a2.57,2.57 0 0 0 -3.35,-1.46z" fill-rule="evenodd" id="svg_12"/>
  <path class="cls-2" d="m105.29,176.42l0,0a2.57,2.57 0 0 0 -1.45,3.32l16.16,41.34a2.56,2.56 0 1 0 4.77,-1.87l-16.13,-41.33a2.57,2.57 0 0 0 -3.35,-1.46z" fill="none" stroke-linecap="round" stroke-width="0.57px" stroke="#000" stroke-miterlimit="22.93" id="svg_13"/>
  <path class="cls-4" d="m101.66,176.42l0,0a2.57,2.57 0 0 1 1.46,3.32l-16.12,41.34a2.56,2.56 0 0 1 -4.77,-1.87l16.14,-41.33a2.56,2.56 0 0 1 3.29,-1.46z" fill-rule="evenodd" id="svg_14"/>
  <path class="cls-2" d="m101.66,176.42l0,0a2.57,2.57 0 0 1 1.46,3.32l-16.12,41.34a2.56,2.56 0 0 1 -4.77,-1.87l16.14,-41.33a2.56,2.56 0 0 1 3.29,-1.46z" fill="none" stroke-linecap="round" stroke-width="0.57px" stroke="#000" stroke-miterlimit="22.93" id="svg_15"/>
  <path class="cls-1" d="m158,206.12l-21,0a0.66,0.66 0 0 0 -0.64,0.64l-1,14.16l33.57,0c0.63,-5.93 -3.71,-7.73 -8.83,-10.27c-1.99,-1.47 -2.1,-4.53 -2.1,-4.53z" fill="#ffbffb" fill-rule="evenodd" id="svg_16"/>
  <path class="cls-5" d="m158,206.12l-21,0a0.66,0.66 0 0 0 -0.64,0.64l-1,14.16l33.57,0c0.63,-5.93 -3.71,-7.73 -8.83,-10.27c-1.99,-1.47 -2.1,-4.53 -2.1,-4.53z" fill="#ffffff" stroke-linecap="round" stroke-width="0.57px" stroke="#000" stroke-linejoin="round" id="svg_17"/>
  <rect class="cls-6" x="134.31" y="218.65" width="35.27" height="4.31" rx="0.64" ry="0.64" fill="#ffbffb" id="svg_18"/>
  <rect class="cls-5" x="134.31" y="218.65" width="35.27" height="4.31" rx="0.64" ry="0.64" fill="#ffffff" stroke-linecap="round" stroke-width="0.57px" stroke="#000" stroke-linejoin="round" id="svg_19"/>
  <path class="cls-4" d="m157.66,206.42l0.44,1.76a148.24,148.24 0 0 0 -16.79,-1.7l16.35,-0.06z" fill-rule="evenodd" id="svg_20"/>
  <path class="cls-2" d="m157.66,206.42l0.44,1.76a148.24,148.24 0 0 0 -16.79,-1.7l16.35,-0.06z" fill="none" stroke-linecap="round" stroke-width="0.57px" stroke="#000" stroke-miterlimit="22.93" id="svg_21"/>
  <path class="cls-1" d="m141.05,206.08l-21,0a0.67,0.67 0 0 0 -0.64,0.64l-1,14.16l33.59,0c0.63,-5.93 -3.71,-7.73 -8.84,-10.27c-1.95,-1.47 -2.11,-4.53 -2.11,-4.53z" fill="#ffbffb" fill-rule="evenodd" id="svg_22"/>
  <path class="cls-5" d="m141.05,206.08l-21,0a0.67,0.67 0 0 0 -0.64,0.64l-1,14.16l33.59,0c0.63,-5.93 -3.71,-7.73 -8.84,-10.27c-1.95,-1.47 -2.11,-4.53 -2.11,-4.53z" fill="#ffffff" stroke-linecap="round" stroke-width="0.57px" stroke="#000" stroke-linejoin="round" id="svg_23"/>
  <rect class="cls-6" x="117.41" y="218.62" width="35.27" height="4.31" rx="0.64" ry="0.64" fill="#ffbffb" id="svg_24"/>
  <rect class="cls-5" x="117.41" y="218.62" width="35.27" height="4.31" rx="0.64" ry="0.64" fill="#ffffff" stroke-linecap="round" stroke-width="0.57px" stroke="#000" stroke-linejoin="round" id="svg_25"/>
  <path class="cls-4" d="m141.06,206.38l0.43,1.77a128,128 0 0 0 -16.37,-1.71l15.94,-0.06z" fill-rule="evenodd" id="svg_26"/>
  <path class="cls-2" d="m141.06,206.38l0.43,1.77a128,128 0 0 0 -16.37,-1.71l15.94,-0.06z" fill="none" stroke-linecap="round" stroke-width="0.57px" stroke="#000" stroke-miterlimit="22.93" id="svg_27"/>
  <path class="cls-1" d="m120.22,81.8c0,8.55 0,8.41 0,17c-0.15,21.11 12.37,21.53 10.92,50.63c-0.21,4.25 -3.68,3.72 -4.33,9.43c-4.8,1.17 -17.65,-3.52 -22.45,-2.36c-4.79,-1.16 -16.66,8.43 -21.45,7.26c-1.29,-5.64 -2.86,-9 -2.82,-13.44c0.19,-27 11.39,-33.72 11.37,-50l0,-18.46c-0.03,-19 28.73,-18.35 28.76,-0.06z" fill="#ffffff" fill-rule="evenodd" id="svg_28"/>
  <path class="cls-1" d="m137.19,148.77c8.34,0.49 22.54,4.08 21.92,23.7c0,19.15 0.08,32.95 0,33.94c0.79,0.25 -39.75,0.2 -39.75,0.2s0.29,-22.64 0.16,-27.05c-0.11,-3.71 -0.29,-6.72 -5.55,-6.7c-0.93,0 -12.64,0 -13.62,0.06c-8.08,0.3 -22.2,1 -21.94,-15c0,-2.4 0.75,-4.79 1.75,-8.44a3.6,3.6 0 0 0 0,-0.73l46.48,0c3.3,0.02 7.36,-0.16 10.55,0.02z" fill="#ffbffb" fill-rule="evenodd" id="svg_30"/>
  <path class="cls-5" d="m137.19,148.77c8.34,0.49 22.54,4.08 21.92,23.7c0,19.15 0.08,32.95 0,33.94c0.79,0.25 -39.75,0.2 -39.75,0.2s0.29,-22.64 0.16,-27.05c-0.11,-3.71 -0.29,-6.72 -5.55,-6.7c-0.93,0 -12.64,0 -13.62,0.06c-8.08,0.3 -22.2,1 -21.94,-15c0,-2.4 0.75,-4.79 1.75,-8.44a3.6,3.6 0 0 0 0,-0.73l46.48,0c3.3,0.02 7.36,-0.16 10.55,0.02z" fill="#ffffff" stroke-linecap="round" stroke-width="0.57px" stroke="#000" stroke-linejoin="round" id="svg_31"/>
  <path class="cls-1" d="m91.73,103.69l28.5,0a2,2 0 0 1 0,4l-28.5,0a2,2 0 1 1 0,-4z" fill="#ffbffb" fill-rule="evenodd" id="svg_32"/>
  <path class="cls-2" d="m91.73,103.69l28.5,0a2,2 0 0 1 0,4l-28.5,0a2,2 0 1 1 0,-4z" fill="#ffffff" stroke-linecap="round" stroke-width="0.57px" stroke="#000" stroke-miterlimit="22.93" id="svg_33"/>
  <line class="cls-2" x1="91.46" y1="80.14" x2="135.3" y2="80.14" fill="none" stroke-linecap="round" stroke-width="0.57px" stroke="#000" stroke-miterlimit="22.93" id="svg_34"/>
  <path class="cls-4" d="m120.86,107.71l0.44,1.77a142.65,142.65 0 0 0 -16.79,-1.7l16.35,-0.07z" fill-rule="evenodd" id="svg_35"/>
  <path class="cls-2" d="m120.86,107.71l0.44,1.77a142.65,142.65 0 0 0 -16.79,-1.7l16.35,-0.07z" fill="none" stroke-linecap="round" stroke-width="0.57px" stroke="#000" stroke-miterlimit="22.93" id="svg_36"/>
  <path class="cls-4" d="m119.77,80.07l0.44,1.77a142.3,142.3 0 0 0 -16.79,-1.7l16.35,-0.07z" fill-rule="evenodd" id="svg_37"/>
  <path class="cls-2" d="m119.77,80.07l0.44,1.77a142.3,142.3 0 0 0 -16.79,-1.7l16.35,-0.07z" fill="none" stroke-linecap="round" stroke-width="0.57px" stroke="#000" stroke-miterlimit="22.93" id="svg_38"/>
  <path class="cls-2" d="m142.48,206.74l0,-36.38c0,-1.72 0.78,-20.35 -15.84,-21.63" fill="none" stroke-linecap="round" stroke-width="0.57px" stroke="#000" stroke-miterlimit="22.93" id="svg_39"/>
  <path class="cls-7" d="m119.26,92.69a1.67,1.67 0 1 1 1.67,-1.69a1.68,1.68 0 0 1 -1.67,1.69z" fill-rule="evenodd" fill="#fefefe" id="svg_40"/>
  <path class="cls-5" d="m119.26,92.69a1.67,1.67 0 1 1 1.67,-1.69a1.68,1.68 0 0 1 -1.67,1.69z" fill="none" stroke-linecap="round" stroke-width="0.57px" stroke="#000" stroke-linejoin="round" id="svg_41"/>
  <path class="cls-7" d="m105.23,89.35a1.67,1.67 0 1 1 -1.67,1.65a1.67,1.67 0 0 1 1.67,-1.65z" fill-rule="evenodd" fill="#fefefe" id="svg_42"/>
  <path class="cls-5" d="m105.23,89.35a1.67,1.67 0 1 1 -1.67,1.65a1.67,1.67 0 0 1 1.67,-1.65z" fill="none" stroke-linecap="round" stroke-width="0.57px" stroke="#000" stroke-linejoin="round" id="svg_43"/>
  <path class="cls-2" d="m118.63,84.54a3.31,3.31 0 0 1 1.93,0.3" fill="none" stroke-linecap="round" stroke-width="0.57px" stroke="#000" stroke-miterlimit="22.93" id="svg_44"/>
  <path class="cls-2" d="m105.94,84.54a3.28,3.28 0 0 0 -1.93,0.3" fill="none" stroke-linecap="round" stroke-width="0.57px" stroke="#000" stroke-miterlimit="22.93" id="svg_45"/>
  <path class="cls-4" d="m119.76,91.71a0.19,0.19 0 0 1 0.19,0.19a0.2,0.2 0 0 1 -0.19,0.19a0.19,0.19 0 0 1 -0.19,-0.19a0.18,0.18 0 0 1 0.19,-0.19z" fill-rule="evenodd" id="svg_46"/>
  <path class="cls-5" d="m119.76,91.71a0.19,0.19 0 0 1 0.19,0.19a0.2,0.2 0 0 1 -0.19,0.19a0.19,0.19 0 0 1 -0.19,-0.19a0.18,0.18 0 0 1 0.19,-0.19z" fill="none" stroke-linecap="round" stroke-width="0.57px" stroke="#000" stroke-linejoin="round" id="svg_47"/>
  <path class="cls-4" d="m105.84,91.9a0.2,0.2 0 0 1 -0.19,-0.19a0.2,0.2 0 0 1 0.19,-0.2a0.19,0.19 0 0 1 0.19,0.2a0.19,0.19 0 0 1 -0.19,0.19z" fill-rule="evenodd" id="svg_48"/>
  <path class="cls-5" d="m105.84,91.9a0.2,0.2 0 0 1 -0.19,-0.19a0.2,0.2 0 0 1 0.19,-0.2a0.19,0.19 0 0 1 0.19,0.2a0.19,0.19 0 0 1 -0.19,0.19z" fill="none" stroke-linecap="round" stroke-width="0.57px" stroke="#000" stroke-linejoin="round" id="svg_49"/>
  <path class="cls-3" d="m107.87,95.88c0.39,0.94 1.48,1.06 2.38,1.06" fill="none" stroke-linecap="round" stroke-width="0.57px" stroke-miterlimit="22.93" stroke="#373435" id="svg_50"/>
  <path class="cls-4" d="m115.58,110.21l15.52,5.5l-7.58,27l-17,-6l7.17,-25.53a1.42,1.42 0 0 1 1.89,-0.97z" fill-rule="evenodd" id="svg_51"/>
  <path class="cls-2" d="m115.58,110.21l15.52,5.5l-7.58,27l-17,-6l7.17,-25.53a1.42,1.42 0 0 1 1.89,-0.97z" fill="none" stroke-linecap="round" stroke-width="0.57px" stroke="#000" stroke-miterlimit="22.93" id="svg_52"/>
  <path class="cls-4" d="m137,110.64l-5.72,5l-7.58,27l6.86,-6l6.83,-24.31c0.45,-1.49 0.27,-2.24 -0.39,-1.69z" fill-rule="evenodd" id="svg_53"/>
  <path class="cls-2" d="m137,110.64l-5.72,5l-7.58,27l6.86,-6l6.83,-24.31c0.45,-1.49 0.27,-2.24 -0.39,-1.69z" fill="none" stroke-linecap="round" stroke-width="0.57px" stroke="#000" stroke-miterlimit="22.93" id="svg_54"/>
  <path class="cls-1" d="m96.75,114.2c3.51,4.94 4.16,9.91 8.75,14.19c0.86,0.8 6.9,2.57 11.47,3.88c1.94,0.55 5.55,-0.61 6.45,-0.33s2.48,1.1 1.19,3.43c-0.25,0.46 3.13,0.13 3.77,0.81c1.79,1.93 -1,3.37 -1,3.37c0.15,1.52 -0.89,2.1 -2.44,2.7a2,2 0 0 1 -1.69,1.37a33.22,33.22 0 0 1 -12,-1c-1.41,-0.39 -2.9,-0.86 -4.32,-1.35c-7.27,-2.51 -13,-4 -16.52,-11.31c-0.31,-0.64 -1.85,-3.74 -3,-5.91c-3,-5.8 6.72,-14.09 9.31,-9.9" fill="#ffffff" fill-rule="evenodd" id="svg_55"/>
  <path class="cls-2" d="m96.75,114.2c3.51,4.94 4.16,9.91 8.75,14.19c0.86,0.8 6.9,2.57 11.47,3.88c1.94,0.55 5.55,-0.61 6.45,-0.33s2.48,1.1 1.19,3.43c-0.25,0.46 3.13,0.13 3.77,0.81c1.79,1.93 -1,3.37 -1,3.37c0.15,1.52 -0.89,2.1 -2.44,2.7a2,2 0 0 1 -1.69,1.37a33.22,33.22 0 0 1 -12,-1c-1.41,-0.39 -2.9,-0.86 -4.32,-1.35c-7.27,-2.51 -13,-4 -16.52,-11.31c-0.31,-0.64 -1.85,-3.74 -3,-5.91" fill="#ffffff" stroke-linecap="round" stroke-width="0.57px" stroke="#000" stroke-miterlimit="22.93" id="svg_56"/>
  <path class="cls-2" d="m123,139a13.52,13.52 0 0 0 4.64,0.47" fill="none" stroke-linecap="round" stroke-width="0.57px" stroke="#000" stroke-miterlimit="22.93" id="svg_57"/>
  <path class="cls-2" d="m120.5,141.69a13.46,13.46 0 0 0 4.63,0.47" fill="none" stroke-linecap="round" stroke-width="0.57px" stroke="#000" stroke-miterlimit="22.93" id="svg_58"/>
  <path class="cls-4" d="m117,144.84c-7.89,-0.82 -17.13,-5.28 -21,-8c-0.56,-0.4 -2.19,-1.88 -0.07,-0.26s6,3 9,4.08a49.63,49.63 0 0 0 16.71,3.1s-1.23,1.43 -4.64,1.08z" fill-rule="evenodd" id="svg_59"/>
  <path class="cls-2" d="m117,144.84c-7.89,-0.82 -17.13,-5.28 -21,-8c-0.56,-0.4 -2.19,-1.88 -0.07,-0.26s6,3 9,4.08a49.63,49.63 0 0 0 16.71,3.1s-1.23,1.43 -4.64,1.08z" fill="none" stroke-linecap="round" stroke-width="0.57px" stroke="#000" stroke-miterlimit="22.93" id="svg_60"/>
  <line class="cls-2" x1="124.96" y1="135.62" x2="121.01" y2="135.13" fill="none" stroke-linecap="round" stroke-width="0.57px" stroke="#000" stroke-miterlimit="22.93" id="svg_61"/>
 </g>
</svg>